<svg width="166" height="72" viewBox="0 0 166 72" fill="none" xmlns="http://www.w3.org/2000/svg">
<path d="M23.0153 39.157C23.0926 39.157 23.1506 39.273 23.1893 39.505C23.2473 39.737 23.2763 40.0077 23.2763 40.317V42.84C23.2763 43.1687 23.2473 43.449 23.1893 43.681C23.1506 43.8937 23.0926 44 23.0153 44H21.5073C20.5406 44 19.7093 43.768 19.0133 43.304C18.3173 42.8207 17.8339 42.1923 17.5633 41.419L17.4183 41.767C17.1863 42.3083 16.7416 42.666 16.0843 42.84C15.4463 43.014 14.5086 43.101 13.2713 43.101C12.0339 43.101 11.0673 42.811 10.3713 42.231C9.67528 41.6317 9.32728 40.752 9.32728 39.592C9.32728 38.1807 9.51094 37.0207 9.87828 36.112C10.2649 35.184 10.8933 34.372 11.7633 33.676C12.6526 32.9607 13.9093 32.2453 15.5333 31.53L15.2433 29.413L18.7233 28.398L19.5353 36.286C19.6126 37.0013 19.7093 37.5523 19.8253 37.939C19.9413 38.3257 20.1539 38.6253 20.4633 38.838C20.7726 39.0507 21.2463 39.157 21.8843 39.157H23.0153ZM13.7643 38.751C14.5569 38.751 15.5043 38.5673 16.6063 38.2L16.1423 34.981C13.8416 35.851 12.5559 37.0303 12.2853 38.519C12.7299 38.6737 13.2229 38.751 13.7643 38.751ZM36.3571 39.157C36.4344 39.157 36.5021 39.273 36.5601 39.505C36.6181 39.737 36.6471 40.0077 36.6471 40.317V42.84C36.6471 43.1493 36.6181 43.42 36.5601 43.652C36.5021 43.884 36.4344 44 36.3571 44C34.5398 44 33.1478 43.826 32.1811 43.478C31.2338 43.1107 30.6248 42.5017 30.3541 41.651C29.7161 42.5597 28.8171 43.1783 27.6571 43.507C26.4971 43.8357 24.9504 44 23.0171 44C22.9398 44 22.8818 43.8937 22.8431 43.681C22.7851 43.449 22.7561 43.1687 22.7561 42.84V40.317C22.7561 40.0077 22.7851 39.737 22.8431 39.505C22.8818 39.273 22.9398 39.157 23.0171 39.157C25.6851 39.157 27.5508 38.9637 28.6141 38.577L27.9471 22.511L31.7751 21.873L31.8621 36.924C31.8621 37.5813 32.0748 38.1227 32.5001 38.548C32.9448 38.954 33.5634 39.157 34.3561 39.157H36.3571ZM44.36 31.617C44.5533 34.5943 44.65 37.0303 44.65 38.925C44.65 39.6597 44.505 40.3557 44.215 41.013C43.925 41.651 43.4706 42.1827 42.852 42.608C41.4793 43.536 39.314 44 36.356 44C36.2786 44 36.2206 43.8937 36.182 43.681C36.124 43.449 36.095 43.1687 36.095 42.84V40.317C36.095 40.0077 36.124 39.737 36.182 39.505C36.2206 39.273 36.2786 39.157 36.356 39.157C37.516 39.157 38.4923 39.1087 39.285 39.012C40.0776 38.9153 40.764 38.7317 41.344 38.461L40.648 32.255L44.36 31.617ZM36.675 46.726L39.459 48.959L37.226 51.743L34.442 49.51L36.675 46.726ZM41.286 46.726L44.07 48.959L41.837 51.743L39.053 49.51L41.286 46.726ZM39.111 51.627L41.895 53.86L39.633 56.644L36.878 54.411L39.111 51.627ZM64.2483 39.157C64.3256 39.157 64.3836 39.273 64.4223 39.505C64.4803 39.737 64.5093 40.0077 64.5093 40.317V42.84C64.5093 43.1687 64.4803 43.449 64.4223 43.681C64.3836 43.8937 64.3256 44 64.2483 44H63.2913C62.7306 44 62.199 43.8937 61.6963 43.681C61.1936 43.449 60.7683 43.1203 60.4203 42.695C60.3236 44.8023 59.5793 46.6873 58.1873 48.35C56.8146 50.0127 54.5526 51.5883 51.4013 53.077L48.8493 49.394C51.4593 48.234 53.3636 47.161 54.5623 46.175C55.761 45.2083 56.6213 44.1837 57.1433 43.101L55.9253 34.256L59.7533 33.473L60.1883 37.33C60.2656 38.026 60.546 38.5093 61.0293 38.78C61.5126 39.0313 62.2666 39.157 63.2913 39.157H64.2483ZM75.3005 31.617C75.4938 34.5943 75.5905 37.0303 75.5905 38.925C75.5905 39.6597 75.4455 40.3557 75.1555 41.013C74.8848 41.651 74.4305 42.1827 73.7925 42.608C73.0771 43.0913 72.0235 43.449 70.6315 43.681C69.2395 43.8937 67.1128 44 64.2515 44C64.1741 44 64.1161 43.8937 64.0775 43.681C64.0195 43.449 63.9905 43.1687 63.9905 42.84V40.317C63.9905 40.0077 64.0195 39.737 64.0775 39.505C64.1161 39.273 64.1741 39.157 64.2515 39.157C66.6681 39.157 68.4468 39.1183 69.5875 39.041C70.7475 38.9443 71.6465 38.751 72.2845 38.461L71.6175 32.255L75.3005 31.617ZM64.4545 47.48L67.3545 49.829L65.0055 52.729L62.1055 50.38L64.4545 47.48ZM69.2975 47.48L72.1975 49.829L69.8485 52.729L66.9485 50.38L69.2975 47.48ZM74.0827 49.394C76.6927 48.234 78.597 47.161 79.7957 46.175C80.9944 45.2083 81.8547 44.1837 82.3767 43.101L81.1587 34.256L84.9867 33.473C85.238 35.6577 85.412 37.3977 85.5087 38.693C85.6247 39.9883 85.6827 41.1193 85.6827 42.086C85.6827 44.348 84.9964 46.3587 83.6237 48.118C82.251 49.8773 79.9214 51.5303 76.6347 53.077L74.0827 49.394ZM82.2607 24.889L85.5087 27.499L83.0147 30.515L79.7667 27.905L82.2607 24.889Z" fill="#041558"/>
<path d="M156.027 11.0968V59.6669C156.027 60.8425 154.783 61.7959 153.246 61.7959H105.856C105.369 61.7959 104.973 61.3973 104.973 60.905V45.9231C104.973 45.4252 105.354 45.023 105.825 45.023C105.825 45.023 117.279 45.023 121.105 45.023C121.587 45.023 121.979 44.6207 121.979 44.1229C121.979 40.2268 121.979 28.4907 121.979 28.4907C121.979 27.9929 122.361 27.5906 122.831 27.5906H138.092C138.586 27.5906 138.986 27.1883 138.986 26.6905V11.1042C138.986 10.6064 139.367 10.2041 139.838 10.2041H155.14C155.627 10.2041 156.023 10.6027 156.023 11.095" fill="white"/>
<path d="M156.027 11.0968V59.6669C156.027 60.8425 154.783 61.7959 153.246 61.7959H105.856C105.369 61.7959 104.973 61.3973 104.973 60.905V45.9231C104.973 45.4252 105.354 45.023 105.825 45.023C105.825 45.023 117.279 45.023 121.105 45.023C121.587 45.023 121.979 44.6207 121.979 44.1229C121.979 40.2268 121.979 28.4907 121.979 28.4907C121.979 27.9929 122.361 27.5906 122.831 27.5906H138.092C138.586 27.5906 138.986 27.1883 138.986 26.6905V11.1042C138.986 10.6064 139.367 10.2041 139.838 10.2041H155.14C155.627 10.2041 156.023 10.6027 156.023 11.095" stroke="#041558" stroke-width="3" stroke-linejoin="round"/>
<path d="M108.885 61.4067H154.911C155.372 61.4067 155.748 61.0301 155.748 60.5635V13.812" fill="#041558"/>
</svg>
