<?xml version="1.0" encoding="utf-8"?>
<!-- This file is generated by npm run gen:icons -->
<svg xmlns="http://www.w3.org/2000/svg" xmlns:xlink="http://www.w3.org/1999/xlink" width="0" height="0">
<defs>
<symbol viewBox="0 0 36 36" id="add_notes-fill">
<mask id="mask0_103_650" style="mask-type:alpha" maskUnits="userSpaceOnUse" x="0" y="0" width="36" height="36">
<rect x="0.5" y="0.5" width="35" height="35" fill="#D9D9D9"></rect>
</mask>
<g mask="url(#mask0_103_650)">
<path d="M26.105 31.1248H27.3949V27.479H31.0407V26.1891H27.3949V22.5433H26.105V26.1891H22.4592V27.479H26.105V31.1248ZM26.75 33.3966C24.929 33.3966 23.38 32.7581 22.103 31.481C20.826 30.204 20.1875 28.655 20.1875 26.8341C20.1875 25.0131 20.826 23.4641 22.103 22.1871C23.38 20.9101 24.929 20.2716 26.75 20.2716C28.5709 20.2716 30.1199 20.9101 31.3969 22.1871C32.674 23.4641 33.3125 25.0131 33.3125 26.8341C33.3125 28.655 32.674 30.204 31.3969 31.481C30.1199 32.7581 28.5709 33.3966 26.75 33.3966ZM11.0729 13.4283H24.927V11.2412H11.0729V13.4283ZM17.4137 30.3957H8.24043C7.51539 30.3957 6.89475 30.1375 6.3785 29.6213C5.86225 29.105 5.60413 28.4844 5.60413 27.7594V8.24031C5.60413 7.51527 5.86225 6.89463 6.3785 6.37838C6.89475 5.86213 7.51539 5.604 8.24043 5.604H27.7595C28.4845 5.604 29.1052 5.86213 29.6214 6.37838C30.1377 6.89463 30.3958 7.51527 30.3958 8.24031V17.4643C29.803 17.2173 29.2065 17.0298 28.6064 16.9017C28.0063 16.7739 27.3875 16.7099 26.75 16.7099C26.3703 16.7099 26.0067 16.7323 25.6591 16.777C25.3113 16.822 24.9645 16.8921 24.6186 16.9874V16.9061H11.0729V19.0936H20.3417C19.7547 19.5534 19.2336 20.0755 18.7783 20.6598C18.3231 21.2441 17.9383 21.8813 17.6241 22.5713H11.0729V24.7585H16.9314C16.8548 25.0859 16.7988 25.4117 16.7633 25.7359C16.7278 26.0604 16.7101 26.3984 16.7101 26.7498C16.7101 27.3742 16.7595 27.9931 16.8584 28.6063C16.9576 29.2195 17.1427 29.816 17.4137 30.3957Z" fill-opacity="0.65"></path>
</g>
</symbol>
<symbol viewBox="0 0 36 36" id="add_notes">
<mask id="mask0_103_567" style="mask-type:alpha" maskUnits="userSpaceOnUse" x="0" y="0" width="36" height="36">
<rect x="0.5" y="0.5" width="35" height="35" fill="#D9D9D9"></rect>
</mask>
<g mask="url(#mask0_103_567)">
<path d="M8.24043 30.3957C7.51321 30.3957 6.89196 30.1382 6.37668 29.6231C5.86164 29.1078 5.60413 28.4866 5.60413 27.7594V8.24031C5.60413 7.51308 5.86164 6.89183 6.37668 6.37656C6.89196 5.86152 7.51321 5.604 8.24043 5.604H27.7595C28.4867 5.604 29.108 5.86152 29.6232 6.37656C30.1383 6.89183 30.3958 7.51308 30.3958 8.24031V17.4643C30.0368 17.3109 29.6773 17.181 29.3174 17.0745C28.9574 16.9678 28.5877 16.8828 28.2083 16.8193V8.24031C28.2083 8.12801 28.1615 8.0252 28.0679 7.93187C27.9746 7.83829 27.8718 7.7915 27.7595 7.7915H8.24043C8.12814 7.7915 8.02532 7.83829 7.93199 7.93187C7.83841 8.0252 7.79163 8.12801 7.79163 8.24031V27.7594C7.79163 27.8717 7.83841 27.9745 7.93199 28.0678C8.02532 28.1614 8.12814 28.2082 8.24043 28.2082H16.783C16.8372 28.6119 16.9175 28.9937 17.024 29.3537C17.1307 29.7137 17.2606 30.061 17.4137 30.3957H8.24043ZM7.79163 28.2082V7.7915V16.8193V16.7099V28.2082ZM11.0729 24.7585H16.9314C16.995 24.3791 17.0895 24.0094 17.2146 23.6494C17.3401 23.2895 17.4765 22.9301 17.6241 22.5713H11.0729V24.7585ZM11.0729 19.0936H20.3194C20.9475 18.5608 21.6177 18.1144 22.3301 17.7545C23.0425 17.3945 23.8053 17.1388 24.6186 16.9874V16.9061H11.0729V19.0936ZM11.0729 13.4283H24.927V11.2412H11.0729V13.4283ZM26.75 33.3966C24.929 33.3966 23.38 32.7581 22.103 31.481C20.826 30.204 20.1875 28.655 20.1875 26.8341C20.1875 25.0131 20.826 23.4641 22.103 22.1871C23.38 20.9101 24.929 20.2716 26.75 20.2716C28.5709 20.2716 30.1199 20.9101 31.3969 22.1871C32.674 23.4641 33.3125 25.0131 33.3125 26.8341C33.3125 28.655 32.674 30.204 31.3969 31.481C30.1199 32.7581 28.5709 33.3966 26.75 33.3966ZM26.105 31.1248H27.3949V27.479H31.0407V26.1891H27.3949V22.5433H26.105V26.1891H22.4592V27.479H26.105V31.1248Z" fill-opacity="0.65"></path>
</g>
</symbol>
<symbol viewBox="0 0 15 16" id="arrow_left">
<mask id="mask0_373_8175" style="mask-type:alpha" maskUnits="userSpaceOnUse" x="0" y="0" width="15" height="16">
<rect y="0.5" width="15" height="15" fill="#D9D9D9"></rect>
</mask>
<g mask="url(#mask0_373_8175)">
<path d="M9.9999 14.0336L3.96631 8.00002L9.9999 1.96643L10.8869 2.85346L5.74021 8.00002L10.8869 13.1466L9.9999 14.0336Z"></path>
</g>
</symbol>
<symbol viewBox="0 0 28 29" id="category-fill">
<path d="M5.98864 11.9807L12.9999 0.482422L20.0112 11.9807H5.98864ZM21.0142 28.0223C19.3451 28.0223 17.9287 27.4404 16.765 26.2767C15.6012 25.1129 15.0194 23.6965 15.0194 22.0275C15.0194 20.3587 15.6012 18.9401 16.765 17.7717C17.9287 16.6036 19.3451 16.0195 21.0142 16.0195C22.683 16.0195 24.1016 16.6036 25.27 17.7717C26.4381 18.9401 27.0222 20.3587 27.0222 22.0275C27.0222 23.6965 26.4381 25.1129 25.27 26.2767C24.1016 27.4404 22.683 28.0223 21.0142 28.0223ZM0.436035 27.2931V16.7487H10.9805V27.2931H0.436035Z" fill-opacity="0.65"></path>
</symbol>
<symbol viewBox="0 0 28 29" id="category">
<path d="M5.98864 11.9807L12.9999 0.482422L20.0112 11.9807H5.98864ZM21.0208 28.0223C19.3473 28.0223 17.9287 27.4404 16.765 26.2767C15.6012 25.1129 15.0194 23.6943 15.0194 22.0209C15.0194 20.3475 15.6012 18.9289 16.765 17.7651C17.9287 16.6014 19.3473 16.0195 21.0208 16.0195C22.6942 16.0195 24.1128 16.6014 25.2766 17.7651C26.4403 18.9289 27.0222 20.3475 27.0222 22.0209C27.0222 23.6943 26.4403 25.1129 25.2766 26.2767C24.1128 27.4404 22.6942 28.0223 21.0208 28.0223ZM0.436035 27.2931V16.7487H10.9805V27.2931H0.436035ZM21.0204 25.8352C22.0882 25.8352 22.9909 25.4665 23.7285 24.729C24.4662 23.9916 24.835 23.089 24.835 22.0213C24.835 20.9535 24.4663 20.0508 23.7289 19.3132C22.9915 18.5755 22.0889 18.2066 21.0211 18.2066C19.9534 18.2066 19.0507 18.5754 18.313 19.3128C17.5753 20.0502 17.2065 20.9528 17.2065 22.0205C17.2065 23.0883 17.5752 23.991 18.3126 24.7287C19.0501 25.4663 19.9527 25.8352 21.0204 25.8352ZM2.62317 25.106H8.79338V18.9358H2.62317V25.106ZM9.84775 9.79352H16.1521L12.9999 4.72289L9.84775 9.79352Z" fill-opacity="0.65"></path>
</symbol>
<symbol viewBox="0 0 15 16" id="edit">
<path d="M15 4.42972C15.0006 4.33102 14.9816 4.23318 14.9443 4.14181C14.907 4.05044 14.852 3.96733 14.7825 3.89726L11.6025 0.717496C11.5324 0.64799 11.4493 0.593001 11.3579 0.55568C11.2665 0.518359 11.1687 0.499442 11.07 0.500013C10.9713 0.499442 10.8734 0.518359 10.7821 0.55568C10.6907 0.593001 10.6076 0.64799 10.5375 0.717496L8.415 2.83984L0.217512 11.0367C0.148001 11.1068 0.0930074 11.1899 0.055684 11.2813C0.0183606 11.3726 -0.000558133 11.4705 1.25357e-05 11.5692V14.7489C1.25357e-05 14.9478 0.07903 15.1386 0.219682 15.2792C0.360334 15.4199 0.551099 15.4989 0.750011 15.4989H3.93001C4.03495 15.5046 4.13993 15.4882 4.23812 15.4507C4.33631 15.4133 4.42554 15.3556 4.5 15.2814L12.6525 7.08452L14.7825 4.99968C14.8509 4.92699 14.9067 4.84334 14.9475 4.75219C14.9547 4.69242 14.9547 4.63199 14.9475 4.57221C14.951 4.5373 14.951 4.50213 14.9475 4.46722L15 4.42972ZM3.62251 13.999H1.50001V11.8767L8.9475 4.42972L11.07 6.55206L3.62251 13.999ZM12.1275 5.49464L10.005 3.3723L11.07 2.31488L13.185 4.42972L12.1275 5.49464Z"></path>
</symbol>
<symbol viewBox="0 0 22 26" id="home-fill">
<path d="M0.0625 25.3958V8.9895L11 0.758301L21.9375 8.9895V25.3958H13.7763V15.6362H8.2237V25.3958H0.0625Z" fill-opacity="0.65"></path>
</symbol>
<symbol viewBox="0 0 25 26" id="home">
<mask id="mask0_556_3333" style="mask-type:alpha" maskUnits="userSpaceOnUse" x="0" y="0" width="25" height="26">
<rect y="0.5" width="25" height="25" fill="#D9D9D9"></rect>
</mask>
<g mask="url(#mask0_556_3333)">
<path d="M6.25 20.2915H9.73568V14.1017H15.2643V20.2915H18.75V10.9165L12.5 6.20898L6.25 10.9165V20.2915ZM4.6875 21.854V10.1353L12.5 4.25586L20.3125 10.1353V21.854H13.7018V15.6642H11.2982V21.854H4.6875Z"></path>
</g>
</symbol>
<symbol viewBox="0 0 91 131" id="login-logo">
<path d="M78.2178 14.6793V76.7411C78.2178 78.2432 76.623 79.4614 74.6539 79.4614H13.914C13.2896 79.4614 12.7822 78.9521 12.7822 78.3231V59.1795C12.7822 58.5434 13.2709 58.0293 13.8743 58.0293C13.8743 58.0293 28.5553 58.0293 33.4591 58.0293C34.0765 58.0293 34.5792 57.5153 34.5792 56.8792C34.5792 51.9009 34.5792 36.9047 34.5792 36.9047C34.5792 36.2687 35.068 35.7546 35.6713 35.7546H55.2304C55.8642 35.7546 56.3763 35.2406 56.3763 34.6045V14.6887C56.3763 14.0526 56.8651 13.5386 57.4684 13.5386H77.0813C77.7057 13.5386 78.2131 14.0479 78.2131 14.677"></path>
<path d="M78.2178 14.6793V76.7411C78.2178 78.2432 76.623 79.4614 74.6539 79.4614H13.914C13.2896 79.4614 12.7822 78.9521 12.7822 78.323V59.1795C12.7822 58.5434 13.2709 58.0293 13.8743 58.0293C13.8743 58.0293 28.5553 58.0293 33.4591 58.0293C34.0765 58.0293 34.5792 57.5153 34.5792 56.8792C34.5792 51.9009 34.5792 36.9047 34.5792 36.9047C34.5792 36.2687 35.068 35.7546 35.6713 35.7546H55.2304C55.8642 35.7546 56.3763 35.2406 56.3763 34.6045V14.6887C56.3763 14.0526 56.8651 13.5386 57.4684 13.5386H77.0813C77.7057 13.5386 78.2131 14.0479 78.2131 14.677" stroke="#041659" stroke-width="4" stroke-linejoin="round"></path>
<path d="M17.7959 78.9638H76.7866C77.3783 78.9638 77.86 78.4827 77.86 77.8865V18.1484"></path>
<path d="M26.0129 115.044C26.0609 115.044 26.1009 115.132 26.1329 115.308C26.1809 115.468 26.2049 115.66 26.2049 115.884V117.636C26.2049 117.876 26.1809 118.084 26.1329 118.26C26.1009 118.42 26.0609 118.5 26.0129 118.5H24.9569C24.1729 118.5 23.4929 118.324 22.9169 117.972C22.3569 117.604 21.9729 117.092 21.7649 116.436L21.6689 116.652C21.4929 117.084 21.1249 117.38 20.5649 117.54C20.0209 117.684 19.2689 117.756 18.3089 117.756C17.3649 117.756 16.5969 117.532 16.0049 117.084C15.4129 116.62 15.1169 115.94 15.1169 115.044C15.1169 113.94 15.2849 113.004 15.6209 112.236C15.9569 111.468 16.4929 110.804 17.2289 110.244C17.9649 109.668 18.9569 109.132 20.2049 108.636L20.0129 106.956L22.4849 106.236L23.1329 112.572C23.1969 113.196 23.2769 113.676 23.3729 114.012C23.4689 114.332 23.6449 114.588 23.9009 114.78C24.1729 114.956 24.5809 115.044 25.1249 115.044H26.0129ZM18.6449 114.636C19.2849 114.636 20.0849 114.476 21.0449 114.156L20.6609 111.156C19.5249 111.508 18.6849 111.972 18.1409 112.548C17.6129 113.124 17.3169 113.724 17.2529 114.348C17.6689 114.54 18.1329 114.636 18.6449 114.636ZM36.6074 115.044C36.6554 115.044 36.6954 115.132 36.7274 115.308C36.7754 115.468 36.7994 115.66 36.7994 115.884V117.636C36.7994 117.876 36.7754 118.084 36.7274 118.26C36.6954 118.42 36.6554 118.5 36.6074 118.5C35.1034 118.5 33.9754 118.356 33.2234 118.068C32.4714 117.78 31.9914 117.3 31.7834 116.628C31.3034 117.332 30.5994 117.82 29.6714 118.092C28.7594 118.364 27.5434 118.5 26.0234 118.5C25.9754 118.5 25.9274 118.412 25.8794 118.236C25.8314 118.06 25.8074 117.86 25.8074 117.636V115.884C25.8074 115.66 25.8314 115.468 25.8794 115.308C25.9274 115.132 25.9754 115.044 26.0234 115.044C28.2154 115.044 29.7194 114.86 30.5354 114.492L30.0074 101.076L32.7434 100.596L32.8394 113.172C32.8554 113.748 33.0634 114.204 33.4634 114.54C33.8794 114.876 34.4554 115.044 35.1914 115.044H36.6074ZM43.0012 108.684C43.1612 111.244 43.2412 113.236 43.2412 114.66C43.2412 115.204 43.1212 115.724 42.8812 116.22C42.6572 116.7 42.3052 117.1 41.8252 117.42C40.6412 118.14 38.9052 118.5 36.6172 118.5C36.5692 118.5 36.5212 118.412 36.4732 118.236C36.4252 118.06 36.4012 117.86 36.4012 117.636V115.884C36.4012 115.66 36.4252 115.468 36.4732 115.308C36.5212 115.132 36.5692 115.044 36.6172 115.044C37.5612 115.044 38.3772 115.004 39.0652 114.924C39.7692 114.828 40.3772 114.652 40.8892 114.396L40.3612 109.14L43.0012 108.684ZM37.0252 120.876L39.0892 122.532L37.4092 124.596L35.3692 122.94L37.0252 120.876ZM40.5772 120.876L42.6172 122.532L40.9612 124.596L38.8972 122.94L40.5772 120.876ZM38.8732 124.668L40.9372 126.324L39.2812 128.388L37.2172 126.732L38.8732 124.668ZM59.1073 115.044C59.1713 115.044 59.2193 115.132 59.2513 115.308C59.2993 115.468 59.3233 115.66 59.3233 115.884V117.636C59.3233 117.876 59.2993 118.084 59.2513 118.26C59.2193 118.42 59.1713 118.5 59.1073 118.5H58.2433C57.7633 118.5 57.3073 118.404 56.8753 118.212C56.4593 118.02 56.1073 117.748 55.8193 117.396C55.7713 119.06 55.1713 120.572 54.0193 121.932C52.8833 123.308 51.0593 124.58 48.5472 125.748L46.7232 123.084C48.8032 122.172 50.3473 121.3 51.3553 120.468C52.3793 119.636 53.0753 118.772 53.4433 117.876L52.5312 110.748L55.2673 110.196L55.5312 112.716L55.6033 113.436C55.6673 114.028 55.9153 114.444 56.3473 114.684C56.7793 114.924 57.4113 115.044 58.2433 115.044H59.1073ZM67.7092 108.684C67.8692 111.244 67.9492 113.236 67.9492 114.66C67.9492 115.204 67.8292 115.724 67.5892 116.22C67.3652 116.7 67.0132 117.1 66.5332 117.42C65.9252 117.788 65.0692 118.06 63.9652 118.236C62.8612 118.412 61.2452 118.5 59.1172 118.5C59.0692 118.5 59.0212 118.412 58.9732 118.236C58.9252 118.06 58.9012 117.86 58.9012 117.636V115.884C58.9012 115.66 58.9252 115.468 58.9732 115.308C59.0212 115.132 59.0692 115.044 59.1172 115.044C60.9732 115.044 62.3732 115.004 63.3172 114.924C64.2772 114.828 65.0372 114.652 65.5972 114.396L65.0452 109.14L67.7092 108.684ZM59.4532 121.38L61.6132 123.132L59.8612 125.268L57.7252 123.516L59.4532 121.38ZM63.1732 121.38L65.3092 123.132L63.5812 125.268L61.4212 123.516L63.1732 121.38ZM66.7857 123.084C68.8657 122.172 70.4098 121.3 71.4178 120.468C72.4418 119.636 73.1378 118.772 73.5058 117.876L72.5938 110.748L75.3298 110.196C75.5218 112.036 75.6578 113.476 75.7378 114.516C75.8338 115.54 75.8818 116.42 75.8818 117.156C75.8818 118.868 75.3138 120.428 74.1778 121.836C73.0418 123.244 71.1858 124.548 68.6097 125.748L66.7857 123.084ZM73.3378 103.572L75.7378 105.468L73.9138 107.7L71.5138 105.804L73.3378 103.572Z"></path>
</symbol>
<symbol viewBox="0 0 36 36" id="person-fill">
<mask id="mask0_103_720" style="mask-type:alpha" maskUnits="userSpaceOnUse" x="0" y="0" width="36" height="36">
<rect x="0.5" y="0.5" width="35" height="35" fill="#D9D9D9"></rect>
</mask>
<g mask="url(#mask0_103_720)">
<path d="M18 17.5511C16.5964 17.5511 15.3948 17.0514 14.3954 16.0519C13.3957 15.0523 12.8958 13.8506 12.8958 12.4469C12.8958 11.0433 13.3957 9.84175 14.3954 8.8423C15.3948 7.84262 16.5964 7.34277 18 7.34277C19.4036 7.34277 20.6052 7.84262 21.6046 8.8423C22.6043 9.84175 23.1042 11.0433 23.1042 12.4469C23.1042 13.8506 22.6043 15.0523 21.6046 16.0519C20.6052 17.0514 19.4036 17.5511 18 17.5511ZM7.0625 28.657V25.4148C7.0625 24.7007 7.25646 24.0394 7.64438 23.4307C8.03229 22.8221 8.55073 22.3542 9.19969 22.0271C10.641 21.3205 12.0951 20.7906 13.5619 20.4371C15.0288 20.0837 16.5081 19.907 18 19.907C19.4919 19.907 20.9712 20.0837 22.4381 20.4371C23.9049 20.7906 25.359 21.3205 26.8003 22.0271C27.4493 22.3542 27.9677 22.8221 28.3556 23.4307C28.7435 24.0394 28.9375 24.7007 28.9375 25.4148V28.657H7.0625Z" fill-opacity="0.65"></path>
</g>
</symbol>
<symbol viewBox="0 0 22 22" id="person">
<path d="M11 10.5516C9.59635 10.5516 8.39481 10.0519 7.39537 9.05243C6.39568 8.05274 5.89583 6.85107 5.89583 5.44743C5.89583 4.04378 6.39568 2.84224 7.39537 1.84279C8.39481 0.843106 9.59635 0.343262 11 0.343262C12.4036 0.343262 13.6052 0.843106 14.6046 1.84279C15.6043 2.84224 16.1042 4.04378 16.1042 5.44743C16.1042 6.85107 15.6043 8.05274 14.6046 9.05243C13.6052 10.0519 12.4036 10.5516 11 10.5516ZM0.0625 21.6575V18.4153C0.0625 17.7012 0.256459 17.0398 0.644375 16.4312C1.03229 15.8226 1.55073 15.3547 2.19969 15.0276C3.64101 14.321 5.09509 13.791 6.56193 13.4376C8.02877 13.0842 9.50813 12.9075 11 12.9075C12.4919 12.9075 13.9712 13.0842 15.4381 13.4376C16.9049 13.791 18.359 14.321 19.8003 15.0276C20.4493 15.3547 20.9677 15.8226 21.3556 16.4312C21.7435 17.0398 21.9375 17.7012 21.9375 18.4153V21.6575H0.0625ZM2.25 19.47H19.75V18.4153C19.75 18.12 19.6644 17.8465 19.4933 17.595C19.3222 17.3437 19.09 17.1385 18.7966 16.9796C17.54 16.3607 16.2589 15.8919 14.9532 15.573C13.6472 15.2544 12.3295 15.095 11 15.095C9.67049 15.095 8.35276 15.2544 7.04682 15.573C5.74113 15.8919 4.45998 16.3607 3.20339 16.9796C2.91002 17.1385 2.67778 17.3437 2.50667 17.595C2.33556 17.8465 2.25 18.12 2.25 18.4153V19.47ZM11 8.3641C11.8021 8.3641 12.4887 8.07851 13.0599 7.50732C13.6311 6.93614 13.9167 6.24951 13.9167 5.44743C13.9167 4.64535 13.6311 3.95871 13.0599 3.38753C12.4887 2.81635 11.8021 2.53076 11 2.53076C10.1979 2.53076 9.51128 2.81635 8.9401 3.38753C8.36892 3.95871 8.08333 4.64535 8.08333 5.44743C8.08333 6.24951 8.36892 6.93614 8.9401 7.50732C9.51128 8.07851 10.1979 8.3641 11 8.3641Z" fill-opacity="0.65"></path>
</symbol>
<symbol viewBox="0 0 28 28" id="Search">
<path d="M11.4452 21.1004C6.12138 21.1004 1.79007 16.7691 1.79007 11.4452C1.79007 6.12135 6.12138 1.79004 11.4452 1.79004C16.7691 1.79004 21.1004 6.12135 21.1004 11.4452C21.1004 16.7691 16.7691 21.1004 11.4452 21.1004ZM11.4452 3.72107C7.18635 3.72107 3.7211 7.18632 3.7211 11.4452C3.7211 15.7041 7.18635 19.1693 11.4452 19.1693C15.7041 19.1693 19.1694 15.7041 19.1694 11.4452C19.1694 7.18632 15.7051 3.72107 11.4452 3.72107Z"></path>
<path d="M25.2444 26.2099C25.1176 26.2101 24.992 26.1851 24.8749 26.1366C24.7577 26.088 24.6513 26.0168 24.5618 25.927L17.1331 18.4983C17.0435 18.4087 16.9723 18.3023 16.9238 18.1851C16.8753 18.068 16.8503 17.9425 16.8503 17.8157C16.8503 17.6889 16.8753 17.5634 16.9238 17.4463C16.9723 17.3292 17.0435 17.2227 17.1331 17.1331C17.2227 17.0435 17.3292 16.9723 17.4463 16.9238C17.5634 16.8753 17.6889 16.8503 17.8157 16.8503C17.9425 16.8503 18.068 16.8753 18.1851 16.9238C18.3023 16.9723 18.4087 17.0435 18.4983 17.1331L25.927 24.5618C26.0625 24.6966 26.1548 24.8687 26.1923 25.0561C26.2298 25.2435 26.2108 25.4379 26.1377 25.6145C26.0645 25.7911 25.9406 25.9419 25.7815 26.048C25.6225 26.154 25.4355 26.2103 25.2444 26.2099Z"></path>
</symbol>
<symbol viewBox="0 0 26 26" id="widgets">
<path d="M18.5292 14.7005L11.3272 7.49849L18.5292 0.296875L25.7308 7.49849L18.5292 14.7005ZM0.0532227 12.2607V2.05234H10.2616V12.2607H0.0532227ZM13.739 25.9464V15.7381H23.9473V25.9464H13.739ZM0.0532227 25.9464V15.7381H10.2616V25.9464H0.0532227ZM2.24072 10.0732H8.07406V4.23984H2.24072V10.0732ZM18.5657 11.6547L22.6855 7.53495L18.5657 3.41516L14.4459 7.53495L18.5657 11.6547ZM15.9265 23.7589H21.7598V17.9256H15.9265V23.7589ZM2.24072 23.7589H8.07406V17.9256H2.24072V23.7589Z" fill-opacity="0.65"></path>
</symbol>
</defs>
</svg>
