<?xml version="1.0" encoding="utf-8"?>
<!-- This file is generated by npm run gen:icons -->
<svg xmlns="http://www.w3.org/2000/svg" xmlns:xlink="http://www.w3.org/1999/xlink" width="0" height="0">
<defs>
<symbol viewBox="0 0 91 131" id="login-logo">
<path d="M78.2178 14.6793V76.7411C78.2178 78.2432 76.623 79.4614 74.6539 79.4614H13.914C13.2896 79.4614 12.7822 78.9521 12.7822 78.3231V59.1795C12.7822 58.5434 13.2709 58.0293 13.8743 58.0293C13.8743 58.0293 28.5553 58.0293 33.4591 58.0293C34.0765 58.0293 34.5792 57.5153 34.5792 56.8792C34.5792 51.9009 34.5792 36.9047 34.5792 36.9047C34.5792 36.2687 35.068 35.7546 35.6713 35.7546H55.2304C55.8642 35.7546 56.3763 35.2406 56.3763 34.6045V14.6887C56.3763 14.0526 56.8651 13.5386 57.4684 13.5386H77.0813C77.7057 13.5386 78.2131 14.0479 78.2131 14.677"></path>
<path d="M78.2178 14.6793V76.7411C78.2178 78.2432 76.623 79.4614 74.6539 79.4614H13.914C13.2896 79.4614 12.7822 78.9521 12.7822 78.323V59.1795C12.7822 58.5434 13.2709 58.0293 13.8743 58.0293C13.8743 58.0293 28.5553 58.0293 33.4591 58.0293C34.0765 58.0293 34.5792 57.5153 34.5792 56.8792C34.5792 51.9009 34.5792 36.9047 34.5792 36.9047C34.5792 36.2687 35.068 35.7546 35.6713 35.7546H55.2304C55.8642 35.7546 56.3763 35.2406 56.3763 34.6045V14.6887C56.3763 14.0526 56.8651 13.5386 57.4684 13.5386H77.0813C77.7057 13.5386 78.2131 14.0479 78.2131 14.677" stroke="#041659" stroke-width="4" stroke-linejoin="round"></path>
<path d="M17.7959 78.9638H76.7866C77.3783 78.9638 77.86 78.4827 77.86 77.8865V18.1484"></path>
<path d="M26.0129 115.044C26.0609 115.044 26.1009 115.132 26.1329 115.308C26.1809 115.468 26.2049 115.66 26.2049 115.884V117.636C26.2049 117.876 26.1809 118.084 26.1329 118.26C26.1009 118.42 26.0609 118.5 26.0129 118.5H24.9569C24.1729 118.5 23.4929 118.324 22.9169 117.972C22.3569 117.604 21.9729 117.092 21.7649 116.436L21.6689 116.652C21.4929 117.084 21.1249 117.38 20.5649 117.54C20.0209 117.684 19.2689 117.756 18.3089 117.756C17.3649 117.756 16.5969 117.532 16.0049 117.084C15.4129 116.62 15.1169 115.94 15.1169 115.044C15.1169 113.94 15.2849 113.004 15.6209 112.236C15.9569 111.468 16.4929 110.804 17.2289 110.244C17.9649 109.668 18.9569 109.132 20.2049 108.636L20.0129 106.956L22.4849 106.236L23.1329 112.572C23.1969 113.196 23.2769 113.676 23.3729 114.012C23.4689 114.332 23.6449 114.588 23.9009 114.78C24.1729 114.956 24.5809 115.044 25.1249 115.044H26.0129ZM18.6449 114.636C19.2849 114.636 20.0849 114.476 21.0449 114.156L20.6609 111.156C19.5249 111.508 18.6849 111.972 18.1409 112.548C17.6129 113.124 17.3169 113.724 17.2529 114.348C17.6689 114.54 18.1329 114.636 18.6449 114.636ZM36.6074 115.044C36.6554 115.044 36.6954 115.132 36.7274 115.308C36.7754 115.468 36.7994 115.66 36.7994 115.884V117.636C36.7994 117.876 36.7754 118.084 36.7274 118.26C36.6954 118.42 36.6554 118.5 36.6074 118.5C35.1034 118.5 33.9754 118.356 33.2234 118.068C32.4714 117.78 31.9914 117.3 31.7834 116.628C31.3034 117.332 30.5994 117.82 29.6714 118.092C28.7594 118.364 27.5434 118.5 26.0234 118.5C25.9754 118.5 25.9274 118.412 25.8794 118.236C25.8314 118.06 25.8074 117.86 25.8074 117.636V115.884C25.8074 115.66 25.8314 115.468 25.8794 115.308C25.9274 115.132 25.9754 115.044 26.0234 115.044C28.2154 115.044 29.7194 114.86 30.5354 114.492L30.0074 101.076L32.7434 100.596L32.8394 113.172C32.8554 113.748 33.0634 114.204 33.4634 114.54C33.8794 114.876 34.4554 115.044 35.1914 115.044H36.6074ZM43.0012 108.684C43.1612 111.244 43.2412 113.236 43.2412 114.66C43.2412 115.204 43.1212 115.724 42.8812 116.22C42.6572 116.7 42.3052 117.1 41.8252 117.42C40.6412 118.14 38.9052 118.5 36.6172 118.5C36.5692 118.5 36.5212 118.412 36.4732 118.236C36.4252 118.06 36.4012 117.86 36.4012 117.636V115.884C36.4012 115.66 36.4252 115.468 36.4732 115.308C36.5212 115.132 36.5692 115.044 36.6172 115.044C37.5612 115.044 38.3772 115.004 39.0652 114.924C39.7692 114.828 40.3772 114.652 40.8892 114.396L40.3612 109.14L43.0012 108.684ZM37.0252 120.876L39.0892 122.532L37.4092 124.596L35.3692 122.94L37.0252 120.876ZM40.5772 120.876L42.6172 122.532L40.9612 124.596L38.8972 122.94L40.5772 120.876ZM38.8732 124.668L40.9372 126.324L39.2812 128.388L37.2172 126.732L38.8732 124.668ZM59.1073 115.044C59.1713 115.044 59.2193 115.132 59.2513 115.308C59.2993 115.468 59.3233 115.66 59.3233 115.884V117.636C59.3233 117.876 59.2993 118.084 59.2513 118.26C59.2193 118.42 59.1713 118.5 59.1073 118.5H58.2433C57.7633 118.5 57.3073 118.404 56.8753 118.212C56.4593 118.02 56.1073 117.748 55.8193 117.396C55.7713 119.06 55.1713 120.572 54.0193 121.932C52.8833 123.308 51.0593 124.58 48.5472 125.748L46.7232 123.084C48.8032 122.172 50.3473 121.3 51.3553 120.468C52.3793 119.636 53.0753 118.772 53.4433 117.876L52.5312 110.748L55.2673 110.196L55.5312 112.716L55.6033 113.436C55.6673 114.028 55.9153 114.444 56.3473 114.684C56.7793 114.924 57.4113 115.044 58.2433 115.044H59.1073ZM67.7092 108.684C67.8692 111.244 67.9492 113.236 67.9492 114.66C67.9492 115.204 67.8292 115.724 67.5892 116.22C67.3652 116.7 67.0132 117.1 66.5332 117.42C65.9252 117.788 65.0692 118.06 63.9652 118.236C62.8612 118.412 61.2452 118.5 59.1172 118.5C59.0692 118.5 59.0212 118.412 58.9732 118.236C58.9252 118.06 58.9012 117.86 58.9012 117.636V115.884C58.9012 115.66 58.9252 115.468 58.9732 115.308C59.0212 115.132 59.0692 115.044 59.1172 115.044C60.9732 115.044 62.3732 115.004 63.3172 114.924C64.2772 114.828 65.0372 114.652 65.5972 114.396L65.0452 109.14L67.7092 108.684ZM59.4532 121.38L61.6132 123.132L59.8612 125.268L57.7252 123.516L59.4532 121.38ZM63.1732 121.38L65.3092 123.132L63.5812 125.268L61.4212 123.516L63.1732 121.38ZM66.7857 123.084C68.8657 122.172 70.4098 121.3 71.4178 120.468C72.4418 119.636 73.1378 118.772 73.5058 117.876L72.5938 110.748L75.3298 110.196C75.5218 112.036 75.6578 113.476 75.7378 114.516C75.8338 115.54 75.8818 116.42 75.8818 117.156C75.8818 118.868 75.3138 120.428 74.1778 121.836C73.0418 123.244 71.1858 124.548 68.6097 125.748L66.7857 123.084ZM73.3378 103.572L75.7378 105.468L73.9138 107.7L71.5138 105.804L73.3378 103.572Z"></path>
</symbol>
</defs>
</svg>
