<svg width="36" height="36" viewBox="0 0 36 36" fill="none" xmlns="http://www.w3.org/2000/svg">
<mask id="mask0_103_567" style="mask-type:alpha" maskUnits="userSpaceOnUse" x="0" y="0" width="36" height="36">
<rect x="0.5" y="0.5" width="35" height="35" fill="#D9D9D9"/>
</mask>
<g mask="url(#mask0_103_567)">
<path d="M8.24043 30.3957C7.51321 30.3957 6.89196 30.1382 6.37668 29.6231C5.86164 29.1078 5.60413 28.4866 5.60413 27.7594V8.24031C5.60413 7.51308 5.86164 6.89183 6.37668 6.37656C6.89196 5.86152 7.51321 5.604 8.24043 5.604H27.7595C28.4867 5.604 29.108 5.86152 29.6232 6.37656C30.1383 6.89183 30.3958 7.51308 30.3958 8.24031V17.4643C30.0368 17.3109 29.6773 17.181 29.3174 17.0745C28.9574 16.9678 28.5877 16.8828 28.2083 16.8193V8.24031C28.2083 8.12801 28.1615 8.0252 28.0679 7.93187C27.9746 7.83829 27.8718 7.7915 27.7595 7.7915H8.24043C8.12814 7.7915 8.02532 7.83829 7.93199 7.93187C7.83841 8.0252 7.79163 8.12801 7.79163 8.24031V27.7594C7.79163 27.8717 7.83841 27.9745 7.93199 28.0678C8.02532 28.1614 8.12814 28.2082 8.24043 28.2082H16.783C16.8372 28.6119 16.9175 28.9937 17.024 29.3537C17.1307 29.7137 17.2606 30.061 17.4137 30.3957H8.24043ZM7.79163 28.2082V7.7915V16.8193V16.7099V28.2082ZM11.0729 24.7585H16.9314C16.995 24.3791 17.0895 24.0094 17.2146 23.6494C17.3401 23.2895 17.4765 22.9301 17.6241 22.5713H11.0729V24.7585ZM11.0729 19.0936H20.3194C20.9475 18.5608 21.6177 18.1144 22.3301 17.7545C23.0425 17.3945 23.8053 17.1388 24.6186 16.9874V16.9061H11.0729V19.0936ZM11.0729 13.4283H24.927V11.2412H11.0729V13.4283ZM26.75 33.3966C24.929 33.3966 23.38 32.7581 22.103 31.481C20.826 30.204 20.1875 28.655 20.1875 26.8341C20.1875 25.0131 20.826 23.4641 22.103 22.1871C23.38 20.9101 24.929 20.2716 26.75 20.2716C28.5709 20.2716 30.1199 20.9101 31.3969 22.1871C32.674 23.4641 33.3125 25.0131 33.3125 26.8341C33.3125 28.655 32.674 30.204 31.3969 31.481C30.1199 32.7581 28.5709 33.3966 26.75 33.3966ZM26.105 31.1248H27.3949V27.479H31.0407V26.1891H27.3949V22.5433H26.105V26.1891H22.4592V27.479H26.105V31.1248Z" fill="black" fill-opacity="0.65"/>
</g>
</svg>
