<svg width="36" height="36" viewBox="0 0 36 36" fill="none" xmlns="http://www.w3.org/2000/svg">
<mask id="mask0_103_650" style="mask-type:alpha" maskUnits="userSpaceOnUse" x="0" y="0" width="36" height="36">
<rect x="0.5" y="0.5" width="35" height="35" fill="#D9D9D9"/>
</mask>
<g mask="url(#mask0_103_650)">
<path d="M26.105 31.1248H27.3949V27.479H31.0407V26.1891H27.3949V22.5433H26.105V26.1891H22.4592V27.479H26.105V31.1248ZM26.75 33.3966C24.929 33.3966 23.38 32.7581 22.103 31.481C20.826 30.204 20.1875 28.655 20.1875 26.8341C20.1875 25.0131 20.826 23.4641 22.103 22.1871C23.38 20.9101 24.929 20.2716 26.75 20.2716C28.5709 20.2716 30.1199 20.9101 31.3969 22.1871C32.674 23.4641 33.3125 25.0131 33.3125 26.8341C33.3125 28.655 32.674 30.204 31.3969 31.481C30.1199 32.7581 28.5709 33.3966 26.75 33.3966ZM11.0729 13.4283H24.927V11.2412H11.0729V13.4283ZM17.4137 30.3957H8.24043C7.51539 30.3957 6.89475 30.1375 6.3785 29.6213C5.86225 29.105 5.60413 28.4844 5.60413 27.7594V8.24031C5.60413 7.51527 5.86225 6.89463 6.3785 6.37838C6.89475 5.86213 7.51539 5.604 8.24043 5.604H27.7595C28.4845 5.604 29.1052 5.86213 29.6214 6.37838C30.1377 6.89463 30.3958 7.51527 30.3958 8.24031V17.4643C29.803 17.2173 29.2065 17.0298 28.6064 16.9017C28.0063 16.7739 27.3875 16.7099 26.75 16.7099C26.3703 16.7099 26.0067 16.7323 25.6591 16.777C25.3113 16.822 24.9645 16.8921 24.6186 16.9874V16.9061H11.0729V19.0936H20.3417C19.7547 19.5534 19.2336 20.0755 18.7783 20.6598C18.3231 21.2441 17.9383 21.8813 17.6241 22.5713H11.0729V24.7585H16.9314C16.8548 25.0859 16.7988 25.4117 16.7633 25.7359C16.7278 26.0604 16.7101 26.3984 16.7101 26.7498C16.7101 27.3742 16.7595 27.9931 16.8584 28.6063C16.9576 29.2195 17.1427 29.816 17.4137 30.3957Z" fill="black" fill-opacity="0.65"/>
</g>
</svg>
