<svg width="16" height="16" viewBox="0 0 16 16" fill="none" xmlns="http://www.w3.org/2000/svg">
<path d="M1.58947 15.0833C1.16849 15.0833 0.812174 14.9375 0.520508 14.6458C0.228841 14.3542 0.0830078 13.9978 0.0830078 13.5769V4.92313C0.0830078 4.50215 0.228841 4.14583 0.520508 3.85417C0.812174 3.5625 1.16849 3.41667 1.58947 3.41667H5.08301V2.00646C5.08301 1.58549 5.22884 1.22917 5.52051 0.9375C5.81217 0.645833 6.16849 0.5 6.58947 0.5H9.40988C9.83086 0.5 10.1872 0.645833 10.4788 0.9375C10.7705 1.22917 10.9163 1.58549 10.9163 2.00646V3.41667H14.4099C14.8309 3.41667 15.1872 3.5625 15.4788 3.85417C15.7705 4.14583 15.9163 4.50215 15.9163 4.92313V13.5769C15.9163 13.9978 15.7705 14.3542 15.4788 14.6458C15.1872 14.9375 14.8309 15.0833 14.4099 15.0833H1.58947ZM6.33301 3.41667H9.66634V2.00646C9.66634 1.94229 9.63961 1.88354 9.58613 1.83021C9.5328 1.77674 9.47405 1.75 9.40988 1.75H6.58947C6.5253 1.75 6.46655 1.77674 6.41322 1.83021C6.35974 1.88354 6.33301 1.94229 6.33301 2.00646V3.41667ZM14.6663 10.2917H10.083V11.75H5.91634V10.2917H1.33301V13.5769C1.33301 13.641 1.35974 13.6998 1.41322 13.7531C1.46655 13.8066 1.5253 13.8333 1.58947 13.8333H14.4099C14.4741 13.8333 14.5328 13.8066 14.5861 13.7531C14.6396 13.6998 14.6663 13.641 14.6663 13.5769V10.2917ZM7.16634 10.5H8.83301V8.83333H7.16634V10.5ZM1.33301 9.04167H5.91634V7.58333H10.083V9.04167H14.6663V4.92313C14.6663 4.85896 14.6396 4.80021 14.5861 4.74687C14.5328 4.6934 14.4741 4.66667 14.4099 4.66667H1.58947C1.5253 4.66667 1.46655 4.6934 1.41322 4.74687C1.35974 4.80021 1.33301 4.85896 1.33301 4.92313V9.04167Z" fill="black"/>
</svg>
