<svg width="28" height="29" viewBox="0 0 28 29" fill="none" xmlns="http://www.w3.org/2000/svg">
<path d="M5.98864 11.9807L12.9999 0.482422L20.0112 11.9807H5.98864ZM21.0142 28.0223C19.3451 28.0223 17.9287 27.4404 16.765 26.2767C15.6012 25.1129 15.0194 23.6965 15.0194 22.0275C15.0194 20.3587 15.6012 18.9401 16.765 17.7717C17.9287 16.6036 19.3451 16.0195 21.0142 16.0195C22.683 16.0195 24.1016 16.6036 25.27 17.7717C26.4381 18.9401 27.0222 20.3587 27.0222 22.0275C27.0222 23.6965 26.4381 25.1129 25.27 26.2767C24.1016 27.4404 22.683 28.0223 21.0142 28.0223ZM0.436035 27.2931V16.7487H10.9805V27.2931H0.436035Z" fill="black" fill-opacity="0.65"/>
</svg>
