<svg width="28" height="29" viewBox="0 0 28 29" fill="none" xmlns="http://www.w3.org/2000/svg">
<path d="M5.98864 11.9807L12.9999 0.482422L20.0112 11.9807H5.98864ZM21.0208 28.0223C19.3473 28.0223 17.9287 27.4404 16.765 26.2767C15.6012 25.1129 15.0194 23.6943 15.0194 22.0209C15.0194 20.3475 15.6012 18.9289 16.765 17.7651C17.9287 16.6014 19.3473 16.0195 21.0208 16.0195C22.6942 16.0195 24.1128 16.6014 25.2766 17.7651C26.4403 18.9289 27.0222 20.3475 27.0222 22.0209C27.0222 23.6943 26.4403 25.1129 25.2766 26.2767C24.1128 27.4404 22.6942 28.0223 21.0208 28.0223ZM0.436035 27.2931V16.7487H10.9805V27.2931H0.436035ZM21.0204 25.8352C22.0882 25.8352 22.9909 25.4665 23.7285 24.729C24.4662 23.9916 24.835 23.089 24.835 22.0213C24.835 20.9535 24.4663 20.0508 23.7289 19.3132C22.9915 18.5755 22.0889 18.2066 21.0211 18.2066C19.9534 18.2066 19.0507 18.5754 18.313 19.3128C17.5753 20.0502 17.2065 20.9528 17.2065 22.0205C17.2065 23.0883 17.5752 23.991 18.3126 24.7287C19.0501 25.4663 19.9527 25.8352 21.0204 25.8352ZM2.62317 25.106H8.79338V18.9358H2.62317V25.106ZM9.84775 9.79352H16.1521L12.9999 4.72289L9.84775 9.79352Z" fill="black" fill-opacity="0.65"/>
</svg>
