<svg width="14" height="16" viewBox="0 0 14 16" fill="none" xmlns="http://www.w3.org/2000/svg">
<path d="M3.875 12.7865H10.125V11.5365H3.875V12.7865ZM3.875 9.45313H10.125V8.20313H3.875V9.45313ZM2.25646 15.9115C1.83549 15.9115 1.47917 15.7656 1.1875 15.474C0.895833 15.1823 0.75 14.826 0.75 14.405V1.58458C0.75 1.16361 0.895833 0.807292 1.1875 0.515625C1.47917 0.223958 1.83549 0.078125 2.25646 0.078125H8.875L13.25 4.45313V14.405C13.25 14.826 13.1042 15.1823 12.8125 15.474C12.5208 15.7656 12.1645 15.9115 11.7435 15.9115H2.25646ZM8.25 5.07813V1.32813H2.25646C2.19229 1.32813 2.13354 1.35486 2.08021 1.40833C2.02674 1.46167 2 1.52042 2 1.58458V14.405C2 14.4692 2.02674 14.5279 2.08021 14.5813C2.13354 14.6347 2.19229 14.6615 2.25646 14.6615H11.7435C11.8077 14.6615 11.8665 14.6347 11.9198 14.5813C11.9733 14.5279 12 14.4692 12 14.405V5.07813H8.25Z" fill="#F89267"/>
</svg>
