<svg width="16" height="15" viewBox="0 0 16 15" fill="none" xmlns="http://www.w3.org/2000/svg">
<path d="M7.99968 14.9409L7.07988 14.114C5.6985 12.8608 4.55613 11.784 3.6528 10.8834C2.74947 9.98272 2.03363 9.18112 1.5053 8.47862C0.976966 7.77626 0.607869 7.13549 0.398008 6.55633C0.188008 5.9773 0.0830078 5.38973 0.0830078 4.79362C0.0830078 3.61098 0.481758 2.62084 1.27926 1.8232C2.0769 1.0257 3.06704 0.626953 4.24967 0.626953C4.97718 0.626953 5.66468 0.797092 6.31218 1.13737C6.95968 1.47765 7.52218 1.96563 7.99968 2.60133C8.47718 1.96563 9.03968 1.47765 9.68718 1.13737C10.3347 0.797092 11.0222 0.626953 11.7497 0.626953C12.9323 0.626953 13.9225 1.0257 14.7201 1.8232C15.5176 2.62084 15.9163 3.61098 15.9163 4.79362C15.9163 5.38973 15.8113 5.9773 15.6013 6.55633C15.3915 7.13549 15.0224 7.77626 14.4941 8.47862C13.9657 9.18112 13.2512 9.98272 12.3505 10.8834C11.45 11.784 10.3063 12.8608 8.91947 14.114L7.99968 14.9409ZM7.99968 13.252C9.33301 12.0522 10.4302 11.0239 11.2913 10.167C12.1525 9.31015 12.833 8.56577 13.333 7.93383C13.833 7.30188 14.1802 6.7407 14.3747 6.25029C14.5691 5.76001 14.6663 5.27445 14.6663 4.79362C14.6663 3.96029 14.3886 3.26584 13.833 2.71029C13.2775 2.15473 12.583 1.87695 11.7497 1.87695C11.0916 1.87695 10.4834 2.06362 9.92509 2.43695C9.3669 2.81043 8.92488 3.32994 8.59905 3.99549H7.4003C7.06905 3.32452 6.62565 2.80369 6.07009 2.43299C5.51454 2.0623 4.90773 1.87695 4.24967 1.87695C3.42162 1.87695 2.72849 2.15473 2.1703 2.71029C1.61211 3.26584 1.33301 3.96029 1.33301 4.79362C1.33301 5.27445 1.43023 5.76001 1.62467 6.25029C1.81912 6.7407 2.16634 7.30188 2.66634 7.93383C3.16634 8.56577 3.8469 9.30883 4.70801 10.163C5.56912 11.0172 6.66634 12.0468 7.99968 13.252Z" fill="black"/>
</svg>
