<svg width="18" height="16" viewBox="0 0 18 16" fill="none" xmlns="http://www.w3.org/2000/svg">
<path d="M14.9764 8.62533H5.14783V7.37533H14.9764L13.4603 5.85928L14.3385 4.95553L17.3832 8.00033L14.3385 11.0451L13.4603 10.1414L14.9764 8.62533ZM10.6687 5.38803V2.42345C10.6687 2.34859 10.6446 2.28713 10.5966 2.23908C10.5484 2.19102 10.4869 2.16699 10.4122 2.16699H2.42345C2.34859 2.16699 2.28713 2.19102 2.23908 2.23908C2.19102 2.28713 2.16699 2.34859 2.16699 2.42345V13.5772C2.16699 13.6521 2.19102 13.7135 2.23908 13.7616C2.28713 13.8096 2.34859 13.8337 2.42345 13.8337H10.4122C10.4869 13.8337 10.5484 13.8096 10.5966 13.7616C10.6446 13.7135 10.6687 13.6521 10.6687 13.5772V10.6126H11.9187V13.5772C11.9187 13.9928 11.7714 14.3478 11.477 14.6422C11.1827 14.9365 10.8278 15.0837 10.4122 15.0837H2.42345C2.00789 15.0837 1.6529 14.9365 1.35845 14.6422C1.06415 14.3478 0.916992 13.9928 0.916992 13.5772V2.42345C0.916992 2.00789 1.06415 1.6529 1.35845 1.35845C1.6529 1.06415 2.00789 0.916992 2.42345 0.916992H10.4122C10.8278 0.916992 11.1827 1.06415 11.477 1.35845C11.7714 1.6529 11.9187 2.00789 11.9187 2.42345V5.38803H10.6687Z" fill="#FF3E3E"/>
</svg>
