<svg width="36" height="36" viewBox="0 0 36 36" fill="none" xmlns="http://www.w3.org/2000/svg">
<mask id="mask0_103_720" style="mask-type:alpha" maskUnits="userSpaceOnUse" x="0" y="0" width="36" height="36">
<rect x="0.5" y="0.5" width="35" height="35" fill="#D9D9D9"/>
</mask>
<g mask="url(#mask0_103_720)">
<path d="M18 17.5511C16.5964 17.5511 15.3948 17.0514 14.3954 16.0519C13.3957 15.0523 12.8958 13.8506 12.8958 12.4469C12.8958 11.0433 13.3957 9.84175 14.3954 8.8423C15.3948 7.84262 16.5964 7.34277 18 7.34277C19.4036 7.34277 20.6052 7.84262 21.6046 8.8423C22.6043 9.84175 23.1042 11.0433 23.1042 12.4469C23.1042 13.8506 22.6043 15.0523 21.6046 16.0519C20.6052 17.0514 19.4036 17.5511 18 17.5511ZM7.0625 28.657V25.4148C7.0625 24.7007 7.25646 24.0394 7.64438 23.4307C8.03229 22.8221 8.55073 22.3542 9.19969 22.0271C10.641 21.3205 12.0951 20.7906 13.5619 20.4371C15.0288 20.0837 16.5081 19.907 18 19.907C19.4919 19.907 20.9712 20.0837 22.4381 20.4371C23.9049 20.7906 25.359 21.3205 26.8003 22.0271C27.4493 22.3542 27.9677 22.8221 28.3556 23.4307C28.7435 24.0394 28.9375 24.7007 28.9375 25.4148V28.657H7.0625Z" fill="black" fill-opacity="0.65"/>
</g>
</svg>
