<svg width="22" height="22" viewBox="0 0 22 22" fill="none" xmlns="http://www.w3.org/2000/svg">
<path d="M11 10.5516C9.59635 10.5516 8.39481 10.0519 7.39537 9.05243C6.39568 8.05274 5.89583 6.85107 5.89583 5.44743C5.89583 4.04378 6.39568 2.84224 7.39537 1.84279C8.39481 0.843106 9.59635 0.343262 11 0.343262C12.4036 0.343262 13.6052 0.843106 14.6046 1.84279C15.6043 2.84224 16.1042 4.04378 16.1042 5.44743C16.1042 6.85107 15.6043 8.05274 14.6046 9.05243C13.6052 10.0519 12.4036 10.5516 11 10.5516ZM0.0625 21.6575V18.4153C0.0625 17.7012 0.256459 17.0398 0.644375 16.4312C1.03229 15.8226 1.55073 15.3547 2.19969 15.0276C3.64101 14.321 5.09509 13.791 6.56193 13.4376C8.02877 13.0842 9.50813 12.9075 11 12.9075C12.4919 12.9075 13.9712 13.0842 15.4381 13.4376C16.9049 13.791 18.359 14.321 19.8003 15.0276C20.4493 15.3547 20.9677 15.8226 21.3556 16.4312C21.7435 17.0398 21.9375 17.7012 21.9375 18.4153V21.6575H0.0625ZM2.25 19.47H19.75V18.4153C19.75 18.12 19.6644 17.8465 19.4933 17.595C19.3222 17.3437 19.09 17.1385 18.7966 16.9796C17.54 16.3607 16.2589 15.8919 14.9532 15.573C13.6472 15.2544 12.3295 15.095 11 15.095C9.67049 15.095 8.35276 15.2544 7.04682 15.573C5.74113 15.8919 4.45998 16.3607 3.20339 16.9796C2.91002 17.1385 2.67778 17.3437 2.50667 17.595C2.33556 17.8465 2.25 18.12 2.25 18.4153V19.47ZM11 8.3641C11.8021 8.3641 12.4887 8.07851 13.0599 7.50732C13.6311 6.93614 13.9167 6.24951 13.9167 5.44743C13.9167 4.64535 13.6311 3.95871 13.0599 3.38753C12.4887 2.81635 11.8021 2.53076 11 2.53076C10.1979 2.53076 9.51128 2.81635 8.9401 3.38753C8.36892 3.95871 8.08333 4.64535 8.08333 5.44743C8.08333 6.24951 8.36892 6.93614 8.9401 7.50732C9.51128 8.07851 10.1979 8.3641 11 8.3641Z" fill="black" fill-opacity="0.65"/>
</svg>
