<svg width="28" height="28" viewBox="0 0 28 28" fill="none" xmlns="http://www.w3.org/2000/svg">
<path d="M11.4452 21.1004C6.12138 21.1004 1.79007 16.7691 1.79007 11.4452C1.79007 6.12135 6.12138 1.79004 11.4452 1.79004C16.7691 1.79004 21.1004 6.12135 21.1004 11.4452C21.1004 16.7691 16.7691 21.1004 11.4452 21.1004ZM11.4452 3.72107C7.18635 3.72107 3.7211 7.18632 3.7211 11.4452C3.7211 15.7041 7.18635 19.1693 11.4452 19.1693C15.7041 19.1693 19.1694 15.7041 19.1694 11.4452C19.1694 7.18632 15.7051 3.72107 11.4452 3.72107Z" fill="#041558"/>
<path d="M25.2444 26.2099C25.1176 26.2101 24.992 26.1851 24.8749 26.1366C24.7577 26.088 24.6513 26.0168 24.5618 25.927L17.1331 18.4983C17.0435 18.4087 16.9723 18.3023 16.9238 18.1851C16.8753 18.068 16.8503 17.9425 16.8503 17.8157C16.8503 17.6889 16.8753 17.5634 16.9238 17.4463C16.9723 17.3292 17.0435 17.2227 17.1331 17.1331C17.2227 17.0435 17.3292 16.9723 17.4463 16.9238C17.5634 16.8753 17.6889 16.8503 17.8157 16.8503C17.9425 16.8503 18.068 16.8753 18.1851 16.9238C18.3023 16.9723 18.4087 17.0435 18.4983 17.1331L25.927 24.5618C26.0625 24.6966 26.1548 24.8687 26.1923 25.0561C26.2298 25.2435 26.2108 25.4379 26.1377 25.6145C26.0645 25.7911 25.9406 25.9419 25.7815 26.048C25.6225 26.154 25.4355 26.2103 25.2444 26.2099Z" fill="#041558"/>
</svg>
